<svg id="Layer_1" data-name="Layer 1" xmlns="http://www.w3.org/2000/svg" xmlns:xlink="http://www.w3.org/1999/xlink" viewBox="0 0 2267.72 2267.72"><defs><style>.cls-1,.cls-2,.cls-3,.cls-4,.cls-5,.cls-6{fill-rule:evenodd;}.cls-1{fill:url(#linear-gradient);}.cls-2{fill:url(#linear-gradient-2);}.cls-3{fill:url(#linear-gradient-3);}.cls-4{fill:url(#linear-gradient-4);}.cls-5{fill:url(#linear-gradient-5);}.cls-6{fill:url(#linear-gradient-6);}.cls-7{font-size:311.36px;}.cls-7,.cls-8{fill:#1f3b64;font-family:Vollkorn-Regular, Vollkorn;}.cls-8{font-size:273.02px;}</style><linearGradient id="linear-gradient" x1="418.86" y1="1078.3" x2="1124.47" y2="1783.91" gradientUnits="userSpaceOnUse"><stop offset="0" stop-color="#ff85ff"/><stop offset="0.49" stop-color="#ad82e0"/><stop offset="1" stop-color="#5a00a1"/></linearGradient><linearGradient id="linear-gradient-2" x1="938.45" y1="558.73" x2="1644.05" y2="1264.33" xlink:href="#linear-gradient"/><linearGradient id="linear-gradient-3" x1="817.27" y1="1877.55" x2="817.27" y2="381.67" gradientUnits="userSpaceOnUse"><stop offset="0" stop-color="#823ebf"/><stop offset="0.09" stop-color="#8042c4"/><stop offset="0.2" stop-color="#7c4fd3"/><stop offset="0.32" stop-color="#7463ec"/><stop offset="0.34" stop-color="#7367f0"/><stop offset="0.69" stop-color="#3cc1b5"/><stop offset="0.99" stop-color="#ffffd2"/></linearGradient><linearGradient id="linear-gradient-4" x1="2017.96" y1="833.3" x2="821.34" y2="833.3" gradientUnits="userSpaceOnUse"><stop offset="0" stop-color="#980ebf"/><stop offset="0.03" stop-color="#a017c4"/><stop offset="0.15" stop-color="#b932d2"/><stop offset="0.27" stop-color="#ca46dd"/><stop offset="0.4" stop-color="#d551e3"/><stop offset="0.52" stop-color="#d855e5"/><stop offset="0.61" stop-color="#d24fe2"/><stop offset="0.73" stop-color="#c23dd8"/><stop offset="0.87" stop-color="#a921c9"/><stop offset="1" stop-color="#8b00b7"/></linearGradient><linearGradient id="linear-gradient-5" x1="1874.63" y1="907.73" x2="678.02" y2="907.73" gradientUnits="userSpaceOnUse"><stop offset="0" stop-color="#e684f6"/><stop offset="0.47" stop-color="#c641da"/><stop offset="1" stop-color="#ad82e0"/></linearGradient><linearGradient id="linear-gradient-6" x1="911.45" y1="1982.75" x2="911.45" y2="486.87" gradientUnits="userSpaceOnUse"><stop offset="0" stop-color="#8c4fc7"/><stop offset="0.41" stop-color="#677ae3"/><stop offset="0.69" stop-color="#5ee4c6"/><stop offset="0.99" stop-color="#ffffd2"/></linearGradient></defs><title>logo peter -01</title><path class="cls-1" d="M335.19,1397.78c0,100.22,40.46,192,109.88,253,194.42,148.51,407.51-13.29,383.37-254.78-7.84,82.72-82.72,156.37-166,157.58-93,2.41-152.14-65.81-152.14-155.76,0-175.69,163.61-268.66,320.57-282.54,36.23-50.73,9-114.1-4.22-176.3C551.94,958.87,335.19,1138.18,335.19,1397.78Z"/><path class="cls-2" d="M1683.91,820c6.64,54.94-29,114.72-106.85,114.72H1002.32c-18.72,54.92-27.19,114.7,3,175.08h348.94C1551.7,1109.81,1729.8,1014.41,1683.91,820Z"/><path class="cls-3" d="M966.09,1530c61-147.91,32-630.9,32-798.11-1.81-111.7,58-170.27,191.39-175.1H1009.56C899.07,556.78,823,629.23,823,740.92c0,141.28,18.1,512.57,2.41,700.31-9.07,114.12-59.77,226.42-181.12,255.39-65.8,15.7-138.85,1.2-199.23-45.88,56.74,50.12,132.22,80.29,221,78.48,123.76-3,252.35-83.31,300.05-199.23Z"/><path class="cls-4" d="M1189.47,556.78c-142.47,0-209.49,56.16-191.39,175.1h579c65.2,0,100.23,41.64,106.26,86.92,25.35,187.77-155.16,285.57-329,291h222.79c377.33,0,377.33-553,0-553Z"/><path class="cls-5" d="M998.08,731.88h579c65.2,0,100.23,41.64,106.26,86.92,25.35,187.77-155.16,285.57-329,291h27.17c173.87,0,347.15-88.16,330.24-289.2-6.63-81.5-65.2-118.33-141.87-114.7Z"/><path class="cls-6" d="M633.43,1728.61c10.87.61,21.73.61,32.61.61,123.76-3,252.35-83.31,300.05-199.23,61-147.91,32-630.9,32-798.11-1.81-111.7,58-170.27,191.39-175.1H1152c-112.29,0-182.32,58.57-181.72,175.7,0,56.14,2.41,112.29,3.61,168.44,1.82,74.25,3.63,149.11,3.63,223.37,0,108.67,1.23,292.81-35.61,393.63-45.28,125.57-164.81,217.35-308.51,210.69Z"/><text class="cls-7" transform="translate(1028.54 1368.87)">Peter </text><text class="cls-8" transform="translate(1028.54 1633.94)">Salama</text></svg>